<svg width="990" height="495" viewBox="0 0 990 495" fill="none" xmlns="http://www.w3.org/2000/svg">
<rect width="990" height="495" fill="#6F5490"/>
<g clip-path="url(#clip0_314_2)">
<mask id="mask0_314_2" style="mask-type:luminance" maskUnits="userSpaceOnUse" x="370" y="122" width="250" height="250">
<path d="M620 122H370V372H620V122Z" fill="white"/>
</mask>
<g mask="url(#mask0_314_2)">
<path d="M497.286 201.993L501.35 196.213L520.999 168.282C523.099 165.301 525.19 162.317 527.273 159.33C527.428 159.087 527.647 158.891 527.904 158.762C528.162 158.633 528.451 158.576 528.739 158.598C544.11 158.598 559.482 158.598 574.853 158.598C575.871 158.598 576.182 158.9 576.182 159.916C576.182 169.68 576.182 179.413 576.182 189.114C576.182 190.139 575.897 190.397 574.844 190.397H566.215V261.31C566.483 261.31 566.758 261.31 567.079 261.31H574.939C575.932 261.31 576.234 261.603 576.234 262.585V291.783C576.234 292.833 575.957 293.109 574.922 293.109H534.944C533.787 293.109 533.537 292.842 533.537 291.662C533.537 280.801 533.537 269.931 533.537 259.053V258.399H532.717C522.455 258.399 512.192 258.399 501.929 258.399C501.452 258.434 500.974 258.336 500.55 258.117C500.125 257.899 499.769 257.566 499.522 257.157C498.556 255.685 497.502 254.272 496.44 252.781C495.267 254.435 494.145 256.021 492.989 257.605L475.895 281.926C473.436 285.424 470.968 288.905 468.517 292.403C468.379 292.63 468.182 292.815 467.946 292.938C467.71 293.06 467.445 293.117 467.18 293.1H435.373C434.899 293.1 434.433 293.1 434.148 292.601C433.863 292.101 434.148 291.739 434.398 291.309L455.367 261.569L478.665 228.486C478.76 228.356 478.838 228.227 478.95 228.055L458.43 199.038H458.275C458.275 199.236 458.275 199.435 458.275 199.633V248.895C458.275 251.377 458.275 253.861 458.275 256.348C458.309 256.634 458.277 256.924 458.182 257.196C458.086 257.467 457.929 257.715 457.724 257.917C457.518 258.118 457.268 258.271 456.995 258.362C456.721 258.453 456.429 258.479 456.143 258.441H416.45C416.159 258.485 415.862 258.463 415.581 258.373C415.301 258.284 415.045 258.132 414.833 257.928C414.622 257.722 414.461 257.472 414.362 257.196C414.264 256.918 414.231 256.622 414.267 256.331C414.267 246.256 414.267 236.188 414.267 226.125C414.229 225.833 414.259 225.536 414.356 225.257C414.452 224.979 414.612 224.726 414.823 224.52C415.034 224.314 415.29 224.159 415.571 224.068C415.851 223.978 416.149 223.953 416.441 223.997H423.759V156.461H416.519C414.948 156.461 414.267 155.789 414.267 154.221C414.267 144.222 414.267 134.222 414.267 124.223C414.222 123.921 414.25 123.612 414.347 123.323C414.444 123.033 414.608 122.77 414.825 122.555C415.043 122.341 415.308 122.18 415.599 122.087C415.89 121.993 416.2 121.969 416.502 122.017H455.919C457.472 122.017 458.197 122.715 458.197 124.249V181.523C458.346 181.376 458.487 181.22 458.62 181.058L478.121 153.274C485.197 143.211 492.267 133.145 499.331 123.077C499.559 122.731 499.874 122.451 500.242 122.264C500.611 122.076 501.023 121.988 501.437 122.009H532.899C533.291 121.962 533.688 122.035 534.039 122.216C534.389 122.397 534.677 122.679 534.866 123.025C535.043 123.388 535.11 123.795 535.057 124.195C535.002 124.595 534.831 124.971 534.564 125.274L513.768 154.867L490.901 187.425C490.34 188.226 489.745 189.019 489.218 189.846C489.155 189.958 489.117 190.082 489.108 190.21C489.1 190.339 489.119 190.467 489.167 190.587C491.779 194.354 494.41 198.108 497.062 201.847C497.132 201.903 497.207 201.952 497.286 201.993ZM533.529 200.27C533.33 200.503 533.2 200.632 533.097 200.779C527.068 209.354 521.028 217.926 514.975 226.495C514.87 226.614 514.812 226.767 514.812 226.926C514.812 227.085 514.87 227.239 514.975 227.357C521.051 235.972 527.117 244.607 533.175 253.263C533.238 253.378 533.286 253.499 533.321 253.626L533.502 253.47L533.529 200.27Z" fill="white"/>
<path d="M370 372V319.447H380.847V339.796H385.972L394.601 319.412H406.363L395.516 344.552L406.734 372H394.895L385.946 349.738H380.847V372H370Z" fill="white"/>
<path d="M414.371 372V319.447H446.842V328.664H424.976V340.477H444.314V349.703H424.976V362.808H446.842V372.034L414.371 372Z" fill="white"/>
<path d="M456.221 372V319.447H468.862L482.496 360.145C482.358 358.371 482.186 356.32 481.996 353.985C481.806 351.651 481.642 349.333 481.521 346.999C481.4 344.663 481.349 342.691 481.349 341.053V319.412H490.84V371.965H478.225L464.729 331.267C464.878 332.801 465.025 334.623 465.169 336.738C465.307 338.848 465.445 340.984 465.566 343.147C465.687 345.309 465.739 347.23 465.739 348.91V371.965L456.221 372Z" fill="white"/>
<path d="M500.592 372V361.912L519.93 329.491H501.171V319.412H532.235V329.491L512.871 361.912H533.064V372H500.592Z" fill="white"/>
<path d="M544.238 372V362.635H554.704V328.768H544.238V319.412H575.983V328.768H565.508V362.627H575.966V371.991L544.238 372Z" fill="white"/>
<path d="M587.529 372V319.447H620V328.664H598.134V340.477H617.472V349.703H598.134V362.808H620V372.034L587.529 372Z" fill="white"/>
</g>
</g>
<defs>
<clipPath id="clip0_314_2">
<rect width="250" height="250" fill="white" transform="translate(370 122)"/>
</clipPath>
</defs>
</svg>
