<svg xmlns="http://www.w3.org/2000/svg" version="1.1" xmlns:xlink="http://www.w3.org/1999/xlink" xmlns:svgjs="http://svgjs.com/svgjs" width="256" height="256" x="0" y="0" viewBox="0 0 24 24" style="enable-background:new 0 0 512 512" xml:space="preserve"><g><path d="M20.657,14.858a3.1,3.1,0,0,0-4.282.007l-1.906,1.606A12.786,12.786,0,0,1,7.537,9.526l1.6-1.9a3.1,3.1,0,0,0,.006-4.281S7.292.942,7.261.911A3.081,3.081,0,0,0,2.934.865l-1.15,1c-7.72,8.208,12.2,28.138,20.4,20.3l.912-1.05a3.1,3.1,0,0,0,0-4.376C23.064,16.71,20.657,14.858,20.657,14.858Zm1.908-2.283c4.991-7.346-3.8-16.123-11.138-11.136a1,1,0,1,0,1.145,1.64c5.472-3.758,12.11,2.883,8.353,8.352a1,1,0,1,0,1.64,1.144ZM18.707,10.71a1,1,0,0,0,0-1.414L17,7.589V5a1,1,0,0,0-2,0V8a1,1,0,0,0,.293.707l2,2a1,1,0,0,0,1.414,0Z" fill="#ffffff" data-original="#000000"></path></g></svg>