<svg width="990" height="495" viewBox="0 0 990 495" fill="none" xmlns="http://www.w3.org/2000/svg">
<rect width="990" height="495" fill="#6F5490"/>
<path d="M290.622 287.023C290.622 274.172 301.044 263.754 313.9 263.754H680.756C693.612 263.754 704.033 274.172 704.033 287.023V314.481C704.033 327.332 693.612 337.75 680.756 337.75H313.9C301.044 337.75 290.622 327.332 290.622 314.481V287.023Z" fill="#FF8C00"/>
<path d="M344.166 215.5C344.166 214.263 343.161 213.259 341.924 213.259H341.899C340.663 213.259 339.67 214.263 339.67 215.5C339.67 216.738 340.684 217.742 341.924 217.742C343.161 217.742 344.166 216.738 344.166 215.5Z" fill="white"/>
<path d="M406.395 146.851C405.899 146.235 405.121 145.923 404.332 146.033C403.549 146.143 402.881 146.658 402.574 147.389C402.466 147.645 391.685 172.91 373.25 172.91H294.766C294.766 170.437 292.752 168.426 290.281 168.426H285.796C283.323 168.427 281.311 170.437 281.311 172.91V186.359C281.311 188.832 283.322 190.843 285.796 190.843H290.281C292.752 190.843 294.766 188.832 294.766 186.359H299.251V278.265C299.251 279.17 299.796 279.989 300.634 280.336C301.473 280.684 302.437 280.493 303.078 279.85L308.22 274.71L313.362 279.85C314.239 280.726 315.656 280.726 316.533 279.85L321.674 274.71L326.816 279.85C327.693 280.726 329.11 280.726 329.987 279.85L335.129 274.71L340.271 279.85C341.148 280.726 342.565 280.726 343.442 279.85L348.583 274.71L353.725 279.85C354.602 280.726 356.019 280.726 356.896 279.85L362.038 274.71L367.18 279.85C367.608 280.278 368.182 280.506 368.765 280.506C369.054 280.506 369.346 280.45 369.624 280.336C370.462 279.989 371.007 279.171 371.007 278.265V193.084C371.007 191.847 370.005 190.843 368.765 190.843C367.525 190.843 366.523 191.847 366.523 193.084V272.853L363.623 269.955C362.746 269.078 361.329 269.078 360.452 269.955L355.311 275.095L350.169 269.955C349.292 269.079 347.875 269.079 346.998 269.955L341.856 275.095L336.714 269.955C335.837 269.079 334.42 269.079 333.544 269.955L328.402 275.095L323.26 269.955C322.383 269.079 320.966 269.079 320.089 269.955L314.947 275.095L309.805 269.955C308.929 269.079 307.511 269.079 306.635 269.955L303.735 272.854V184.118C303.735 182.88 302.733 181.876 301.493 181.876H294.766V177.393H373.25C390.126 177.393 400.877 160.57 404.919 152.859C407.429 157.387 411.371 166.577 411.371 179.635C411.371 192.923 407.287 202.208 404.789 206.646C400.372 199.148 388.534 181.876 373.25 181.876H310.463C309.222 181.876 308.22 182.881 308.22 184.118C308.22 185.355 309.222 186.36 310.463 186.36H373.25C389.586 186.36 402.511 211.763 402.637 212.021C402.982 212.703 403.648 213.165 404.406 213.245C404.487 213.254 404.565 213.259 404.644 213.259C405.321 213.259 405.967 212.952 406.395 212.418C406.781 211.934 415.856 200.358 415.856 179.635C415.856 158.911 406.781 147.335 406.395 146.851ZM290.283 184.127V186.359H285.796V172.91H290.281L290.283 184.109C290.283 184.113 290.281 184.115 290.281 184.117C290.281 184.12 290.283 184.122 290.283 184.127Z" fill="white"/>
<path d="M346.944 229.452C348.35 228.196 352.142 228.636 353.761 228.826C354.393 228.9 354.889 228.95 355.185 228.95C359.733 228.95 362.038 226.688 362.038 222.225C362.038 215.991 358.48 215.101 356.354 214.57C355.607 214.384 354.963 214.222 354.654 213.915C350.171 209.434 344.413 204.292 339.614 204.292H336.744C335.809 202.153 333.894 199.809 330.644 199.809C327.11 199.809 325.368 203.25 324.558 205.812C322.408 205.298 319.813 205.348 317.973 207.19C317.118 208.044 316.67 209.147 316.672 210.378C316.679 211.617 317.156 212.85 317.769 213.922C314.064 215.081 309.784 217.941 308.288 223.921C308.12 224.591 308.27 225.302 308.696 225.845C309.12 226.389 309.772 226.708 310.463 226.708C310.824 226.708 311.27 226.873 311.716 227.113C308.173 232.195 308.581 239.167 312.941 247.884C313.297 248.595 314.001 249.065 314.795 249.119C315.591 249.175 316.349 248.803 316.797 248.149C318.343 245.896 319.858 244.181 321.152 242.919C321.765 246.537 324.24 251.56 331.449 257.57C331.864 257.915 332.373 258.09 332.887 258.09C333.299 258.09 333.712 257.978 334.078 257.747C334.901 257.232 335.297 256.245 335.062 255.304C333.34 248.422 336.084 246.678 336.131 246.647C337.239 246.091 337.69 244.746 337.134 243.639C336.578 242.531 335.234 242.081 334.127 242.637C333.936 242.731 330.496 244.531 330.066 250.101C323.679 243.072 325.785 239.16 325.783 239.16C326.35 238.31 326.271 237.185 325.59 236.423C324.906 235.661 323.794 235.455 322.892 235.923C322.726 236.008 319.382 237.764 315.44 242.509C312.951 236.176 313.315 231.521 316.526 228.342C317.402 227.472 317.414 226.058 316.548 225.177C316.351 224.978 315.102 223.749 313.386 222.94C315.869 217.872 321.54 217.744 321.8 217.742C322.71 217.742 323.529 217.192 323.874 216.35C324.219 215.507 324.022 214.541 323.372 213.904C322.181 212.729 321.044 210.885 321.143 210.36C321.91 209.587 324.114 210.243 325.114 210.759C325.758 211.098 326.529 211.102 327.177 210.772C327.827 210.441 328.274 209.815 328.379 209.094C328.682 206.978 329.81 204.292 330.644 204.292C332.27 204.292 332.931 206.993 332.936 207.004C333.16 208.038 334.073 208.775 335.129 208.775H339.614C341.237 208.775 344.61 210.217 351.483 217.085C352.669 218.271 354.109 218.632 355.264 218.921C357.024 219.36 357.553 219.492 357.553 222.225C357.553 224.466 356.91 224.466 355.187 224.466C354.992 224.464 354.678 224.419 354.282 224.374C351.696 224.074 346.877 223.514 343.96 226.101C343.002 226.957 341.856 228.533 341.856 231.191C341.856 235.392 345.516 237.151 348.584 237.707V241.59C345.55 240.476 340.59 238.187 336.759 234.134C335.912 233.235 334.49 233.193 333.589 234.045C332.69 234.894 332.649 236.313 333.499 237.214C340.314 244.43 349.914 246.73 350.317 246.824C350.981 246.972 351.683 246.822 352.221 246.396C352.755 245.972 353.069 245.324 353.069 244.64V235.674C353.069 234.441 352.067 233.442 350.833 233.433C350.788 233.433 346.342 233.307 346.342 231.191C346.341 230.111 346.684 229.681 346.944 229.452Z" fill="white"/>
<path d="M412.031 316.815C411.629 316.815 411.361 316.681 411.226 316.413C411.092 316.145 411.025 315.855 411.025 315.542V315.408C411.025 312.995 411.204 310.739 411.562 308.639C411.919 306.539 412.254 304.417 412.567 302.273C412.925 300.084 413.104 297.693 413.104 295.102C413.104 294.387 413.059 293.561 412.97 292.623C412.925 291.64 412.768 290.679 412.5 289.741C412.277 288.803 411.919 288.066 411.428 287.529C411.249 287.351 411.159 287.127 411.159 286.859C411.159 286.457 411.338 286.1 411.696 285.787C412.053 285.474 412.433 285.296 412.835 285.251L413.439 285.519C413.975 286.01 414.355 286.882 414.578 288.133C414.802 289.339 414.936 290.567 414.981 291.818C415.025 293.069 415.048 294.052 415.048 294.767C415.048 295.75 415.025 296.733 414.981 297.716C414.936 298.699 414.869 299.704 414.78 300.731C415.003 300.151 415.316 299.413 415.718 298.52C416.12 297.582 416.59 296.666 417.126 295.772C417.707 294.834 418.31 294.052 418.936 293.427C419.606 292.801 420.322 292.489 421.081 292.489C421.841 292.489 422.422 292.913 422.824 293.762C423.227 294.566 423.495 295.571 423.629 296.778C423.808 297.984 423.919 299.145 423.964 300.262C424.009 301.335 424.031 302.139 424.031 302.675C424.299 302.005 424.724 301.044 425.305 299.793C425.931 298.542 426.646 297.18 427.45 295.705C428.299 294.231 429.193 292.824 430.132 291.483C431.07 290.143 431.986 289.048 432.88 288.2C433.774 287.306 434.601 286.859 435.361 286.859C435.986 286.859 436.366 287.194 436.5 287.864C436.679 288.535 436.769 289.093 436.769 289.54C436.769 291.327 436.59 293.136 436.232 294.968C435.919 296.8 435.584 298.654 435.227 300.53C434.914 302.407 434.757 304.306 434.757 306.227C434.757 306.45 434.757 306.942 434.757 307.701C434.802 308.461 434.891 309.175 435.026 309.846C435.204 310.471 435.495 310.784 435.897 310.784C436.567 310.784 437.26 310.449 437.975 309.779C438.69 309.108 439.338 308.349 439.919 307.5C440.545 306.606 441.059 305.825 441.461 305.154C441.908 304.44 442.199 304.082 442.333 304.082C442.512 304.261 442.601 304.484 442.601 304.752C442.601 305.199 442.355 305.869 441.864 306.763C441.372 307.656 440.746 308.572 439.987 309.51C439.271 310.449 438.534 311.253 437.774 311.923C437.014 312.548 436.389 312.861 435.897 312.861C435.048 312.861 434.378 312.437 433.886 311.588C433.439 310.739 433.126 309.779 432.947 308.706C432.813 307.634 432.746 306.808 432.746 306.227C432.746 304.484 432.858 302.764 433.081 301.067C433.305 299.324 433.573 297.604 433.886 295.906C434.065 295.013 434.288 294.075 434.556 293.092C434.869 292.109 435.026 291.171 435.026 290.277C435.026 290.009 434.936 289.741 434.757 289.473L434.623 289.406C434.355 289.406 433.998 289.674 433.551 290.21C433.104 290.701 432.679 291.238 432.277 291.818C431.919 292.399 431.651 292.801 431.472 293.025C429.774 295.437 428.411 297.939 427.383 300.53C426.355 303.077 425.193 305.668 423.897 308.304C423.808 308.483 423.674 308.662 423.495 308.84C423.361 309.019 423.182 309.108 422.958 309.108C422.512 309.108 422.199 308.684 422.02 307.835C421.886 306.942 421.819 305.936 421.819 304.819C421.819 303.792 421.841 302.831 421.886 301.938C421.975 301 422.02 300.352 422.02 299.994C422.02 299.816 421.998 299.436 421.953 298.855C421.953 298.274 421.908 297.649 421.819 296.979C421.774 296.308 421.685 295.728 421.551 295.236C421.461 294.745 421.305 294.499 421.081 294.499C420.634 294.499 420.277 294.678 420.009 295.035C419.785 295.393 419.562 295.75 419.338 296.107C418.042 298.297 416.992 300.553 416.187 302.876C415.472 305.02 414.958 307.232 414.646 309.51C414.333 311.744 413.796 313.911 413.037 316.011C412.902 316.547 412.567 316.815 412.031 316.815Z" fill="white"/>
<path d="M459.773 314.336C459.058 314.336 458.477 314.045 458.03 313.464C457.627 312.884 457.315 312.169 457.091 311.32C456.868 310.426 456.711 309.577 456.622 308.773C456.577 307.924 456.555 307.254 456.555 306.763C456.555 306.316 456.555 305.869 456.555 305.423C456.599 304.976 456.644 304.529 456.689 304.082C456.868 302.697 457.113 301.335 457.426 299.994C457.739 298.609 457.985 297.224 458.164 295.839C458.253 295.124 458.32 294.432 458.365 293.762C458.409 293.092 458.454 292.399 458.499 291.684C458.544 291.461 458.611 291.26 458.7 291.081C458.789 290.858 458.968 290.746 459.236 290.746C459.728 290.746 460.018 290.97 460.108 291.416C460.242 291.818 460.309 292.198 460.309 292.556C460.309 294.164 460.153 295.75 459.84 297.314C459.527 298.877 459.214 300.441 458.901 302.005C458.588 303.568 458.432 305.154 458.432 306.763C458.432 306.942 458.432 307.344 458.432 307.969C458.477 308.55 458.544 309.198 458.633 309.913C458.722 310.583 458.856 311.164 459.035 311.655C459.259 312.146 459.527 312.392 459.84 312.392C460.242 312.392 460.756 311.923 461.382 310.985C462.052 310.047 462.722 308.93 463.393 307.634C464.108 306.294 464.734 305.065 465.27 303.948C465.851 302.787 466.231 302.005 466.41 301.603C467.035 300.218 467.437 298.944 467.616 297.783C467.84 296.621 467.996 295.549 468.086 294.566C468.175 293.538 468.398 292.533 468.756 291.55C468.979 291.014 469.315 290.746 469.762 290.746C470.432 290.746 470.767 291.148 470.767 291.952C470.767 293.337 470.611 295.013 470.298 296.979C469.985 298.9 469.829 300.798 469.829 302.675V304.149C469.829 304.462 469.829 304.953 469.829 305.624C469.829 306.249 469.873 306.919 469.963 307.634C470.097 308.349 470.276 308.952 470.499 309.443C470.767 309.935 471.147 310.181 471.639 310.181C472.22 310.181 472.801 309.846 473.382 309.175C473.963 308.505 474.499 307.723 474.991 306.83C475.527 305.936 475.974 305.154 476.331 304.484C476.689 303.814 476.957 303.479 477.136 303.479C477.404 303.479 477.538 303.658 477.538 304.015C477.538 304.417 477.315 305.065 476.868 305.959C476.466 306.807 475.929 307.701 475.259 308.639C474.633 309.577 473.963 310.382 473.248 311.052C472.577 311.722 471.996 312.057 471.505 312.057C470.477 312.057 469.694 311.633 469.158 310.784C468.667 309.935 468.309 308.885 468.086 307.634C467.907 306.383 467.817 305.177 467.817 304.015C467.817 302.809 467.817 301.871 467.817 301.201C467.639 301.737 467.348 302.541 466.946 303.613C466.544 304.641 466.074 305.78 465.538 307.031C465.002 308.237 464.421 309.399 463.795 310.516C463.169 311.633 462.499 312.548 461.784 313.263C461.113 313.978 460.443 314.336 459.773 314.336Z" fill="white"/>
<path d="M492.926 316.078C492.121 316.078 491.719 315.676 491.719 314.872C491.719 314.112 491.987 313.263 492.524 312.325C493.105 311.342 493.797 310.359 494.602 309.376C495.406 308.349 496.211 307.411 497.015 306.562C497.864 305.713 498.557 305.02 499.093 304.484C498.468 304.172 497.686 303.903 496.747 303.68C495.853 303.412 494.937 303.122 493.998 302.809C493.105 302.452 492.345 302.005 491.719 301.469C491.138 300.888 490.848 300.128 490.848 299.19C490.848 298.207 491.205 297.09 491.92 295.839C492.68 294.588 493.641 293.382 494.803 292.22C495.965 291.014 497.149 290.031 498.356 289.272C499.563 288.468 500.635 288.066 501.574 288.066C502.155 288.066 502.714 288.222 503.25 288.535C503.831 288.803 504.121 289.272 504.121 289.942C504.121 290.121 504.077 290.366 503.987 290.679C503.898 290.992 503.742 291.148 503.518 291.148C503.205 291.148 502.937 290.992 502.714 290.679C502.535 290.322 502.311 290.143 502.043 290.143C501.283 290.143 500.367 290.456 499.295 291.081C498.267 291.707 497.261 292.511 496.278 293.494C495.295 294.432 494.468 295.415 493.797 296.442C493.172 297.47 492.859 298.386 492.859 299.19C492.859 299.726 493.172 300.195 493.797 300.597C494.423 301 495.16 301.335 496.01 301.603C496.904 301.871 497.775 302.139 498.624 302.407C499.473 302.63 500.099 302.876 500.501 303.144C500.725 302.921 501.105 302.563 501.641 302.072C502.177 301.58 502.781 301.044 503.451 300.463C504.121 299.883 504.725 299.391 505.261 298.989C505.842 298.587 506.244 298.386 506.468 298.386C506.647 298.386 506.736 298.475 506.736 298.654C506.736 298.877 506.513 299.257 506.066 299.793C505.663 300.285 505.149 300.821 504.524 301.402C503.943 301.982 503.384 302.541 502.848 303.077C502.311 303.568 501.932 303.926 501.708 304.149C502.11 304.819 502.311 305.534 502.311 306.294C502.311 307.053 501.976 307.991 501.306 309.108C500.635 310.181 499.786 311.253 498.758 312.325C497.775 313.397 496.747 314.291 495.674 315.006C494.602 315.721 493.686 316.078 492.926 316.078ZM495.473 312.66C495.876 312.66 496.345 312.437 496.881 311.99C497.462 311.543 498.021 310.985 498.557 310.315C499.093 309.644 499.54 308.997 499.898 308.371C500.3 307.701 500.501 307.165 500.501 306.763C500.501 306.316 500.412 305.981 500.233 305.758C499.965 306.026 499.54 306.45 498.959 307.031C498.423 307.612 497.842 308.26 497.216 308.974C496.635 309.644 496.121 310.292 495.674 310.918C495.272 311.499 495.071 311.945 495.071 312.258C495.071 312.526 495.205 312.66 495.473 312.66Z" fill="white"/>
<path d="M526.251 289.54C525.938 289.54 525.647 289.473 525.379 289.339C525.111 289.16 524.977 288.914 524.977 288.602C524.977 288.244 525.134 287.708 525.446 286.993C525.759 286.234 526.161 285.474 526.653 284.715C527.145 283.955 527.659 283.307 528.195 282.771C528.776 282.235 529.29 281.967 529.737 281.967C530.094 281.967 530.273 282.191 530.273 282.637C530.273 283.173 529.983 283.598 529.402 283.911C529.044 284.134 528.731 284.558 528.463 285.184C528.24 285.809 528.039 286.457 527.86 287.127C527.726 287.797 527.592 288.334 527.458 288.736C527.323 289.272 526.921 289.54 526.251 289.54ZM524.91 315.207C523.882 315.207 523.122 314.782 522.631 313.933C522.139 313.04 521.826 312.035 521.692 310.918C521.558 309.756 521.491 308.818 521.491 308.103C521.491 307.656 521.536 306.83 521.625 305.624C521.759 304.417 521.916 303.077 522.094 301.603C522.318 300.084 522.564 298.609 522.832 297.18C523.145 295.75 523.502 294.566 523.904 293.628C524.307 292.69 524.731 292.22 525.178 292.22C525.536 292.22 525.849 292.332 526.117 292.556C526.385 292.779 526.519 293.069 526.519 293.427C526.519 293.963 526.363 294.812 526.05 295.973C525.737 297.135 525.357 298.453 524.91 299.927C524.508 301.402 524.128 302.898 523.77 304.417C523.458 305.892 523.301 307.232 523.301 308.438C523.301 308.751 523.323 309.287 523.368 310.047C523.458 310.806 523.614 311.521 523.837 312.191C524.061 312.817 524.418 313.129 524.91 313.129C525.58 313.129 526.318 312.638 527.122 311.655C527.927 310.672 528.731 309.466 529.536 308.036C530.385 306.562 531.167 305.11 531.882 303.68C532.597 302.206 533.201 300.977 533.692 299.994C534.184 299.011 534.519 298.52 534.698 298.52C534.921 298.52 535.055 298.609 535.1 298.788C535.189 298.922 535.234 299.078 535.234 299.257C535.234 299.838 534.988 300.776 534.497 302.072C534.005 303.323 533.357 304.708 532.553 306.227C531.748 307.701 530.877 309.131 529.938 310.516C528.999 311.856 528.083 312.973 527.189 313.866C526.296 314.76 525.536 315.207 524.91 315.207Z" fill="white"/>
<path d="M552.378 315.006C551.038 315.006 549.987 314.559 549.228 313.665C548.468 312.727 547.932 311.633 547.619 310.382C547.306 309.086 547.149 307.924 547.149 306.897C547.149 306.137 547.261 304.953 547.485 303.345C547.708 301.692 548.043 299.883 548.49 297.917C548.982 295.951 549.563 294.052 550.233 292.22C550.904 290.389 551.686 288.892 552.58 287.73C553.473 286.524 554.457 285.921 555.529 285.921C556.289 285.921 556.848 286.211 557.205 286.792C557.563 287.373 557.786 288.11 557.876 289.004C558.01 289.853 558.077 290.701 558.077 291.55C558.077 292.355 558.077 293.025 558.077 293.561C558.077 293.784 557.92 294.03 557.608 294.298C557.339 294.521 557.094 294.633 556.87 294.633C556.423 294.633 556.133 294.432 555.999 294.03C555.865 293.628 555.798 293.181 555.798 292.69C555.798 292.198 555.82 291.751 555.865 291.349C555.909 290.903 555.932 290.567 555.932 290.344C555.932 290.121 555.887 289.763 555.798 289.272C555.708 288.736 555.529 288.468 555.261 288.468C554.546 288.736 553.876 289.451 553.25 290.612C552.624 291.729 552.043 293.069 551.507 294.633C551.015 296.197 550.591 297.805 550.233 299.458C549.92 301.111 549.652 302.63 549.429 304.015C549.25 305.355 549.161 306.361 549.161 307.031C549.161 307.656 549.228 308.461 549.362 309.443C549.54 310.382 549.853 311.231 550.3 311.99C550.792 312.75 551.462 313.129 552.311 313.129C553.25 313.129 554.189 312.705 555.127 311.856C556.066 310.962 556.96 309.868 557.809 308.572C558.703 307.277 559.507 305.981 560.222 304.685C560.937 303.345 561.518 302.25 561.965 301.402C562.457 300.508 562.792 300.061 562.971 300.061C563.194 300.061 563.328 300.173 563.373 300.396C563.418 300.62 563.418 300.798 563.373 300.932L563.306 301.201C563.038 302.183 562.546 303.434 561.831 304.953C561.116 306.472 560.244 308.014 559.217 309.577C558.189 311.096 557.071 312.392 555.865 313.464C554.703 314.492 553.541 315.006 552.378 315.006Z" fill="white"/>
<path d="M377.278 272.131V270.455H400.474C402.575 270.455 404.362 270.143 405.837 269.517C407.357 268.847 408.519 267.618 409.323 265.831C410.128 264.044 410.53 261.475 410.53 258.125C410.53 255.087 410.15 252.741 409.39 251.088C408.631 249.39 407.379 248.206 405.636 247.536C403.893 246.866 401.502 246.531 398.463 246.531L396.452 244.52C401.1 244.52 405.256 245.034 408.921 246.062C412.586 247.045 415.469 248.564 417.569 250.619C419.714 252.674 420.787 255.288 420.787 258.46C420.787 261.14 420.005 263.508 418.441 265.563C416.921 267.618 414.821 269.227 412.139 270.388C409.502 271.55 406.508 272.131 403.156 272.131H377.278ZM384.653 271.126V221.601H393.636V271.126H384.653ZM391.558 246.531V244.52H400.474C402.53 244.52 404.184 244.252 405.435 243.716C406.731 243.135 407.67 242.108 408.251 240.634C408.876 239.115 409.189 236.925 409.189 234.066C409.189 231.028 408.876 228.749 408.251 227.23C407.625 225.667 406.664 224.617 405.368 224.081C404.072 223.545 402.441 223.277 400.474 223.277H377.278V221.601H403.156C406.105 221.601 408.765 222.137 411.133 223.21C413.502 224.237 415.379 225.667 416.765 227.499C418.195 229.33 418.91 231.43 418.91 233.798C418.91 236.3 418.083 238.511 416.43 240.432C414.776 242.354 412.564 243.85 409.793 244.923C407.022 245.995 403.915 246.531 400.474 246.531H391.558Z" fill="white"/>
<path d="M425.689 272.131V270.455H454.047C456.282 270.455 458.159 269.808 459.678 268.512C461.243 267.216 462.449 265.496 463.299 263.352C464.148 261.207 464.595 258.884 464.639 256.382H466.986V272.131H425.689ZM433.6 271.126V221.601H442.583V271.126H433.6ZM425.689 223.277V221.601H450.695V223.277H425.689Z" fill="white"/>
<path d="M494.894 272.935C491.632 272.935 488.592 272.242 485.777 270.857C482.961 269.472 480.481 267.574 478.335 265.161C476.235 262.704 474.581 259.912 473.374 256.784C472.212 253.657 471.631 250.351 471.631 246.866C471.631 243.381 472.212 240.075 473.374 236.948C474.581 233.82 476.235 231.05 478.335 228.638C480.481 226.181 482.961 224.259 485.777 222.874C488.592 221.489 491.632 220.797 494.894 220.797C498.157 220.797 501.196 221.489 504.012 222.874C506.827 224.259 509.285 226.181 511.386 228.638C513.531 231.05 515.185 233.82 516.347 236.948C517.554 240.075 518.157 243.381 518.157 246.866C518.157 250.351 517.554 253.657 516.347 256.784C515.185 259.912 513.531 262.704 511.386 265.161C509.285 267.574 506.827 269.472 504.012 270.857C501.196 272.242 498.157 272.935 494.894 272.935ZM494.894 270.924C497.174 270.924 499.095 270.567 500.66 269.852C502.269 269.093 503.565 267.819 504.548 266.032C505.576 264.245 506.313 261.788 506.76 258.661C507.207 255.533 507.431 251.579 507.431 246.799C507.431 242.019 507.207 238.065 506.76 234.937C506.313 231.81 505.576 229.375 504.548 227.633C503.565 225.845 502.269 224.595 500.66 223.88C499.095 223.165 497.174 222.807 494.894 222.807C492.615 222.807 490.671 223.165 489.062 223.88C487.497 224.595 486.201 225.845 485.173 227.633C484.19 229.42 483.475 231.877 483.028 235.004C482.581 238.132 482.358 242.086 482.358 246.866C482.358 251.646 482.581 255.6 483.028 258.728C483.475 261.855 484.19 264.312 485.173 266.099C486.201 267.886 487.497 269.137 489.062 269.852C490.671 270.567 492.615 270.924 494.894 270.924Z" fill="white"/>
<path d="M538.227 272.935L521.266 223.277H516.171V221.601H563.032V223.277H559.21L553.646 238.69L560.551 259.264H560.819L573.356 223.277H566.451V221.601H580.395V223.277H575.568L558.339 272.935H556.328L548.417 249.815L540.238 272.935H538.227ZM542.585 259.264H542.853L547.344 246.598L539.367 223.277H530.249L542.585 259.264ZM552.573 235.607L556.864 223.277H548.35L552.573 235.607Z" fill="white"/>
<path d="M586.98 271.126V221.601H595.963V271.126H586.98ZM579.606 272.131V270.455H603.338V272.131H579.606ZM579.606 223.277V221.601H603.338V223.277H579.606Z" fill="white"/>
<path d="M644.494 272.935L615.264 226.359H614.996V270.455H622.371V272.131H605.007V270.455H612.382V223.277H605.007V221.601H623.175L643.689 254.171H643.957V223.277H637.253V221.601H653.276V223.277H646.572V272.935H644.494Z" fill="white"/>
<path d="M678.517 272.935C675.031 272.935 671.903 272.22 669.132 270.79C666.361 269.361 663.992 267.44 662.026 265.027C660.104 262.57 658.607 259.822 657.534 256.784C656.506 253.702 655.992 250.552 655.992 247.335C655.992 243.85 656.573 240.522 657.735 237.35C658.942 234.133 660.595 231.296 662.696 228.839C664.797 226.337 667.255 224.371 670.07 222.941C672.931 221.512 676.037 220.797 679.389 220.797C681.49 220.797 683.434 221.132 685.221 221.802C687.009 222.472 688.73 223.522 690.383 224.952L693.333 221.601H695.009V236.747H693.333C692.842 234.245 692.059 231.944 690.987 229.844C689.914 227.7 688.439 226.002 686.562 224.751C684.73 223.455 682.339 222.807 679.389 222.807C677.512 222.807 675.791 223.165 674.227 223.88C672.707 224.595 671.367 225.868 670.204 227.7C669.087 229.487 668.216 232.011 667.59 235.272C667.009 238.489 666.718 242.622 666.718 247.67C666.718 252.317 666.987 256.159 667.523 259.197C668.059 262.19 668.819 264.536 669.802 266.233C670.785 267.931 671.992 269.115 673.422 269.785C674.897 270.455 676.529 270.79 678.316 270.79C681.221 270.79 683.478 270.098 685.087 268.713C686.741 267.283 687.568 265.295 687.568 262.749V253.165H697.557V254.774C697.557 258.571 696.663 261.833 694.875 264.558C693.132 267.239 690.808 269.316 687.903 270.79C685.043 272.22 681.914 272.935 678.517 272.935ZM679.322 254.171V252.495H701.445V254.171H679.322Z" fill="white"/>
</svg>
