<svg width="990" height="495" viewBox="0 0 990 495" fill="none" xmlns="http://www.w3.org/2000/svg">
<rect width="990" height="495" fill="#6F5490"/>
<path d="M384.982 130.773C386.156 131.942 387.33 133.626 387.335 135.32C387.34 138.247 383.903 142.219 377.548 148.744C351.05 174.258 337.721 205.502 337.811 243.186C337.911 284.877 351.929 318.36 379.177 344.309C384.907 349.429 387.26 353.456 387.27 356.903C387.27 358.592 386.106 360.351 384.937 362.044C383.838 363.218 381.495 364.397 379.806 364.397C373.502 364.412 364.679 356.958 353.158 342.455C330.727 314.963 320.585 284.602 320.015 243.226C319.491 201.83 332.47 173.758 357.874 144.777C367.017 134.42 374.641 129.04 379.841 129.03C381.53 129.025 383.289 129.604 384.982 130.773Z" fill="white"/>
<path d="M524.163 250.645C514.206 248.102 555.062 199.832 482.447 142.039C482.447 142.039 491.974 172.309 443.933 239.859C395.868 307.384 465.306 347.611 465.306 347.611C465.306 347.611 432.717 330.245 470.601 268.416C477.381 257.2 486.254 247.043 497.27 224.182C497.27 224.182 507.022 237.946 501.931 267.786C494.317 312.879 534.949 299.975 535.578 300.604C549.772 317.316 523.823 346.687 522.244 347.611C520.67 348.51 596.349 302.088 542.583 232.225C538.901 235.907 534.114 253.193 524.163 250.645Z" fill="white"/>
<path d="M604.019 130.744C602.845 131.913 601.671 133.596 601.666 135.29C601.661 138.217 605.098 142.189 611.453 148.714C637.951 174.223 651.28 205.472 651.19 243.157C651.091 284.847 637.072 318.33 609.824 344.279C604.094 349.4 601.741 353.426 601.731 356.874C601.731 358.562 602.895 360.321 604.064 362.014C605.163 363.188 607.506 364.362 609.195 364.367C615.5 364.382 624.322 356.928 635.843 342.425C658.275 314.933 668.416 284.573 668.986 243.197C669.511 201.8 656.531 173.728 631.127 144.747C621.984 134.391 614.361 129.01 609.16 129C607.471 128.995 605.713 129.575 604.019 130.744Z" fill="white"/>
</svg>
