<svg width="958" height="520" viewBox="0 0 958 520" fill="none" xmlns="http://www.w3.org/2000/svg">
<g filter="url(#filter0_d_332_241)">
<rect x="40" y="296" width="888" height="159" rx="50" fill="#FF8C00"/>
<g clip-path="url(#clip0_332_241)">
<path d="M155.013 192.315C155.013 189.656 152.855 187.498 150.196 187.498H150.143C147.489 187.498 145.355 189.656 145.355 192.315C145.355 194.973 147.533 197.131 150.196 197.131C152.855 197.131 155.013 194.973 155.013 192.315Z" fill="#2F2F2F"/>
<path d="M288.678 44.804C287.613 43.4792 285.942 42.8098 284.247 43.0457C282.566 43.2816 281.13 44.3897 280.47 45.96C280.239 46.5092 257.081 100.798 217.483 100.798H48.8999C48.8999 95.485 44.5745 91.1641 39.2664 91.1641H29.6335C24.3209 91.1647 20 95.485 20 100.798V129.698C20 135.01 24.3203 139.331 29.6335 139.331H39.267C44.5751 139.331 48.9005 135.011 48.9005 129.698H58.534V327.181C58.534 329.126 59.7047 330.885 61.5058 331.631C63.307 332.378 65.3786 331.968 66.7558 330.586L77.7999 319.541L88.8445 330.586C90.7281 332.47 93.7722 332.47 95.6552 330.586L106.7 319.541L117.744 330.586C119.628 332.47 122.672 332.47 124.555 330.586L135.6 319.541L146.644 330.586C148.528 332.47 151.572 332.47 153.455 330.586L164.5 319.541L175.544 330.586C177.427 332.47 180.472 332.47 182.355 330.586L193.4 319.541L204.444 330.586C205.364 331.506 206.597 331.997 207.85 331.997C208.471 331.997 209.097 331.877 209.694 331.631C211.495 330.885 212.666 329.127 212.666 327.181V144.148C212.666 141.489 210.513 139.331 207.85 139.331C205.186 139.331 203.033 141.489 203.033 144.148V315.553L196.805 309.325C194.921 307.441 191.877 307.441 189.994 309.325L178.95 320.37L167.905 309.325C166.021 307.442 162.977 307.442 161.094 309.325L150.05 320.37L139.005 309.325C137.122 307.442 134.077 307.442 132.194 309.325L121.15 320.37L110.105 309.325C108.222 307.442 105.177 307.442 103.294 309.325L92.2499 320.37L81.2052 309.325C79.3222 307.442 76.2776 307.442 74.3945 309.325L68.1664 315.554V124.881C68.1664 122.223 66.0136 120.065 63.3499 120.065H48.8999V110.431H217.483C253.733 110.431 276.825 74.2819 285.509 57.713C290.899 67.4425 299.366 87.1909 299.366 115.248C299.366 143.802 290.595 163.752 285.229 173.289C275.74 157.177 250.313 120.065 217.483 120.065H82.6169C79.9533 120.065 77.8004 122.223 77.8004 124.882C77.8004 127.54 79.9533 129.698 82.6169 129.698H217.483C252.572 129.698 280.335 184.285 280.605 184.839C281.347 186.304 282.778 187.296 284.406 187.469C284.579 187.488 284.748 187.498 284.917 187.498C286.371 187.498 287.759 186.838 288.678 185.692C289.507 184.651 308.999 159.778 308.999 115.248C308.999 70.718 289.507 45.8448 288.678 44.804ZM39.2715 124.9V129.698H29.6335V100.798H39.267V105.61V105.614L39.2715 124.861C39.2715 124.871 39.267 124.876 39.267 124.881C39.267 124.885 39.2715 124.891 39.2715 124.9Z" fill="#2F2F2F"/>
<path d="M160.979 222.293C163.999 219.595 172.144 220.54 175.622 220.949C176.98 221.108 178.044 221.214 178.681 221.214C188.449 221.214 193.4 216.354 193.4 206.764C193.4 193.369 185.757 191.456 181.19 190.315C179.586 189.915 178.204 189.568 177.539 188.908C167.911 179.28 155.541 168.23 145.234 168.23H139.068C137.06 163.635 132.946 158.597 125.967 158.597C118.376 158.597 114.633 165.99 112.895 171.496C108.276 170.393 102.702 170.499 98.7485 174.458C96.9134 176.293 95.9499 178.663 95.955 181.307C95.9697 183.97 96.9953 186.619 98.3105 188.922C90.3534 191.412 81.1585 197.558 77.9456 210.409C77.5843 211.849 77.9072 213.376 78.8222 214.542C79.7326 215.712 81.1342 216.396 82.6176 216.396C83.3931 216.396 84.3516 216.752 85.31 217.268C77.6995 228.187 78.5761 243.167 87.9398 261.899C88.7057 263.426 90.2179 264.438 91.9231 264.553C93.6328 264.674 95.2613 263.874 96.2242 262.468C99.5432 257.627 102.799 253.942 105.578 251.231C106.894 259.005 112.211 269.799 127.696 282.712C128.588 283.454 129.681 283.83 130.784 283.83C131.67 283.83 132.556 283.589 133.341 283.093C135.109 281.985 135.962 279.866 135.456 277.843C131.756 263.056 137.652 259.308 137.753 259.241C140.132 258.046 141.101 255.156 139.906 252.777C138.712 250.397 135.826 249.429 133.447 250.624C133.038 250.826 125.649 254.694 124.724 266.663C111.006 251.559 115.529 243.153 115.524 243.153C116.743 241.328 116.574 238.91 115.11 237.272C113.64 235.635 111.252 235.192 109.315 236.198C108.959 236.381 101.777 240.153 93.3094 250.349C87.9629 236.742 88.743 226.738 95.6406 219.908C97.5236 218.039 97.5479 215 95.6886 213.107C95.2647 212.679 92.5818 210.039 88.8971 208.3C94.2289 197.41 106.41 197.135 106.969 197.13C108.925 197.13 110.683 195.95 111.424 194.139C112.166 192.328 111.742 190.252 110.346 188.884C107.788 186.36 105.346 182.396 105.558 181.269C107.205 179.607 111.94 181.018 114.088 182.126C115.47 182.854 117.128 182.864 118.52 182.155C119.917 181.442 120.875 180.098 121.101 178.548C121.752 174.001 124.174 168.231 125.966 168.231C129.459 168.231 130.879 174.035 130.889 174.059C131.37 176.279 133.331 177.864 135.6 177.864H145.233C148.721 177.864 155.965 180.961 170.728 195.719C173.276 198.267 176.369 199.042 178.849 199.664C182.63 200.608 183.767 200.892 183.767 206.764C183.767 211.58 182.384 211.58 178.685 211.58C178.266 211.575 177.592 211.479 176.739 211.383C171.186 210.737 160.835 209.533 154.568 215.092C152.511 216.932 150.05 220.318 150.05 226.03C150.05 235.056 157.911 238.837 164.5 240.032V248.374C157.983 245.981 147.329 241.063 139.102 232.354C137.281 230.423 134.228 230.331 132.292 232.162C130.36 233.987 130.273 237.036 132.099 238.972C146.737 254.477 167.357 259.419 168.224 259.621C169.65 259.939 171.158 259.616 172.314 258.701C173.46 257.791 174.134 256.399 174.134 254.929V235.663C174.134 233.014 171.982 230.866 169.332 230.847C169.236 230.847 159.684 230.577 159.684 226.03C159.683 223.709 160.421 222.784 160.979 222.293Z" fill="#2F2F2F"/>
</g>
<path d="M300.784 410.016C299.92 410.016 299.344 409.728 299.056 409.152C298.768 408.576 298.624 407.952 298.624 407.28V406.992C298.624 401.808 299.008 396.96 299.776 392.448C300.544 387.936 301.264 383.376 301.936 378.768C302.704 374.064 303.088 368.928 303.088 363.36C303.088 361.824 302.992 360.048 302.8 358.032C302.704 355.92 302.368 353.856 301.792 351.84C301.312 349.824 300.544 348.24 299.488 347.088C299.104 346.704 298.912 346.224 298.912 345.648C298.912 344.784 299.296 344.016 300.064 343.344C300.832 342.672 301.648 342.288 302.512 342.192L303.808 342.768C304.96 343.824 305.776 345.696 306.256 348.384C306.736 350.976 307.024 353.616 307.12 356.304C307.216 358.992 307.264 361.104 307.264 362.64C307.264 364.752 307.216 366.864 307.12 368.976C307.024 371.088 306.88 373.248 306.688 375.456C307.168 374.208 307.84 372.624 308.704 370.704C309.568 368.688 310.576 366.72 311.728 364.8C312.976 362.784 314.272 361.104 315.616 359.76C317.056 358.416 318.592 357.744 320.224 357.744C321.856 357.744 323.104 358.656 323.968 360.48C324.832 362.208 325.408 364.368 325.696 366.96C326.08 369.552 326.32 372.048 326.416 374.448C326.512 376.752 326.56 378.48 326.56 379.632C327.136 378.192 328.048 376.128 329.296 373.44C330.64 370.752 332.176 367.824 333.904 364.656C335.728 361.488 337.648 358.464 339.664 355.584C341.68 352.704 343.648 350.352 345.568 348.528C347.488 346.608 349.264 345.648 350.896 345.648C352.24 345.648 353.056 346.368 353.344 347.808C353.728 349.248 353.92 350.448 353.92 351.408C353.92 355.248 353.536 359.136 352.768 363.072C352.096 367.008 351.376 370.992 350.608 375.024C349.936 379.056 349.6 383.136 349.6 387.264C349.6 387.744 349.6 388.8 349.6 390.432C349.696 392.064 349.888 393.6 350.176 395.04C350.56 396.384 351.184 397.056 352.048 397.056C353.488 397.056 354.976 396.336 356.512 394.896C358.048 393.456 359.44 391.824 360.688 390C362.032 388.08 363.136 386.4 364 384.96C364.96 383.424 365.584 382.656 365.872 382.656C366.256 383.04 366.448 383.52 366.448 384.096C366.448 385.056 365.92 386.496 364.864 388.416C363.808 390.336 362.464 392.304 360.832 394.32C359.296 396.336 357.712 398.064 356.08 399.504C354.448 400.848 353.104 401.52 352.048 401.52C350.224 401.52 348.784 400.608 347.728 398.784C346.768 396.96 346.096 394.896 345.712 392.592C345.424 390.288 345.28 388.512 345.28 387.264C345.28 383.52 345.52 379.824 346 376.176C346.48 372.432 347.056 368.736 347.728 365.088C348.112 363.168 348.592 361.152 349.168 359.04C349.84 356.928 350.176 354.912 350.176 352.992C350.176 352.416 349.984 351.84 349.6 351.264L349.312 351.12C348.736 351.12 347.968 351.696 347.008 352.848C346.048 353.904 345.136 355.056 344.272 356.304C343.504 357.552 342.928 358.416 342.544 358.896C338.896 364.08 335.968 369.456 333.76 375.024C331.552 380.496 329.056 386.064 326.272 391.728C326.08 392.112 325.792 392.496 325.408 392.88C325.12 393.264 324.736 393.456 324.256 393.456C323.296 393.456 322.624 392.544 322.24 390.72C321.952 388.8 321.808 386.64 321.808 384.24C321.808 382.032 321.856 379.968 321.952 378.048C322.144 376.032 322.24 374.64 322.24 373.872C322.24 373.488 322.192 372.672 322.096 371.424C322.096 370.176 322 368.832 321.808 367.392C321.712 365.952 321.52 364.704 321.232 363.648C321.04 362.592 320.704 362.064 320.224 362.064C319.264 362.064 318.496 362.448 317.92 363.216C317.44 363.984 316.96 364.752 316.48 365.52C313.696 370.224 311.44 375.072 309.712 380.064C308.176 384.672 307.072 389.424 306.4 394.32C305.728 399.12 304.576 403.776 302.944 408.288C302.656 409.44 301.936 410.016 300.784 410.016ZM403.332 404.688C401.796 404.688 400.548 404.064 399.588 402.816C398.724 401.568 398.052 400.032 397.572 398.208C397.092 396.288 396.756 394.464 396.564 392.736C396.468 390.912 396.42 389.472 396.42 388.416C396.42 387.456 396.42 386.496 396.42 385.536C396.516 384.576 396.612 383.616 396.708 382.656C397.092 379.68 397.62 376.752 398.292 373.872C398.964 370.896 399.492 367.92 399.876 364.944C400.068 363.408 400.212 361.92 400.308 360.48C400.404 359.04 400.5 357.552 400.596 356.016C400.692 355.536 400.836 355.104 401.028 354.72C401.22 354.24 401.604 354 402.18 354C403.236 354 403.86 354.48 404.052 355.44C404.34 356.304 404.484 357.12 404.484 357.888C404.484 361.344 404.148 364.752 403.476 368.112C402.804 371.472 402.132 374.832 401.46 378.192C400.788 381.552 400.452 384.96 400.452 388.416C400.452 388.8 400.452 389.664 400.452 391.008C400.548 392.256 400.692 393.648 400.884 395.184C401.076 396.624 401.364 397.872 401.748 398.928C402.228 399.984 402.804 400.512 403.476 400.512C404.34 400.512 405.444 399.504 406.788 397.488C408.228 395.472 409.668 393.072 411.108 390.288C412.644 387.408 413.988 384.768 415.14 382.368C416.388 379.872 417.204 378.192 417.588 377.328C418.932 374.352 419.796 371.616 420.18 369.12C420.66 366.624 420.996 364.32 421.188 362.208C421.38 360 421.86 357.84 422.628 355.728C423.108 354.576 423.828 354 424.788 354C426.228 354 426.948 354.864 426.948 356.592C426.948 359.568 426.612 363.168 425.94 367.392C425.268 371.52 424.932 375.6 424.932 379.632V382.8C424.932 383.472 424.932 384.528 424.932 385.968C424.932 387.312 425.028 388.752 425.22 390.288C425.508 391.824 425.892 393.12 426.372 394.176C426.948 395.232 427.764 395.76 428.82 395.76C430.068 395.76 431.316 395.04 432.564 393.6C433.812 392.16 434.964 390.48 436.02 388.56C437.172 386.64 438.132 384.96 438.9 383.52C439.668 382.08 440.244 381.36 440.628 381.36C441.204 381.36 441.492 381.744 441.492 382.512C441.492 383.376 441.012 384.768 440.052 386.688C439.188 388.512 438.036 390.432 436.596 392.448C435.252 394.464 433.812 396.192 432.276 397.632C430.836 399.072 429.588 399.792 428.532 399.792C426.324 399.792 424.644 398.88 423.492 397.056C422.436 395.232 421.668 392.976 421.188 390.288C420.804 387.6 420.612 385.008 420.612 382.512C420.612 379.92 420.612 377.904 420.612 376.464C420.228 377.616 419.604 379.344 418.74 381.648C417.876 383.856 416.868 386.304 415.716 388.992C414.564 391.584 413.316 394.08 411.972 396.48C410.628 398.88 409.188 400.848 407.652 402.384C406.212 403.92 404.772 404.688 403.332 404.688ZM474.545 408.432C472.817 408.432 471.953 407.568 471.953 405.84C471.953 404.208 472.529 402.384 473.681 400.368C474.929 398.256 476.417 396.144 478.145 394.032C479.873 391.824 481.601 389.808 483.329 387.984C485.153 386.16 486.641 384.672 487.793 383.52C486.449 382.848 484.769 382.272 482.753 381.792C480.833 381.216 478.865 380.592 476.849 379.92C474.929 379.152 473.297 378.192 471.953 377.04C470.705 375.792 470.081 374.16 470.081 372.144C470.081 370.032 470.849 367.632 472.385 364.944C474.017 362.256 476.081 359.664 478.577 357.168C481.073 354.576 483.617 352.464 486.209 350.832C488.801 349.104 491.105 348.24 493.121 348.24C494.369 348.24 495.569 348.576 496.721 349.248C497.969 349.824 498.593 350.832 498.593 352.272C498.593 352.656 498.497 353.184 498.305 353.856C498.113 354.528 497.777 354.864 497.297 354.864C496.625 354.864 496.049 354.528 495.569 353.856C495.185 353.088 494.705 352.704 494.129 352.704C492.497 352.704 490.529 353.376 488.225 354.72C486.017 356.064 483.857 357.792 481.745 359.904C479.633 361.92 477.857 364.032 476.417 366.24C475.073 368.448 474.401 370.416 474.401 372.144C474.401 373.296 475.073 374.304 476.417 375.168C477.761 376.032 479.345 376.752 481.169 377.328C483.089 377.904 484.961 378.48 486.785 379.056C488.609 379.536 489.953 380.064 490.817 380.64C491.297 380.16 492.113 379.392 493.265 378.336C494.417 377.28 495.713 376.128 497.153 374.88C498.593 373.632 499.889 372.576 501.041 371.712C502.289 370.848 503.153 370.416 503.633 370.416C504.017 370.416 504.209 370.608 504.209 370.992C504.209 371.472 503.729 372.288 502.769 373.44C501.905 374.496 500.801 375.648 499.457 376.896C498.209 378.144 497.009 379.344 495.857 380.496C494.705 381.552 493.889 382.32 493.409 382.8C494.273 384.24 494.705 385.776 494.705 387.408C494.705 389.04 493.985 391.056 492.545 393.456C491.105 395.76 489.281 398.064 487.073 400.368C484.961 402.672 482.753 404.592 480.449 406.128C478.145 407.664 476.177 408.432 474.545 408.432ZM480.017 401.088C480.881 401.088 481.889 400.608 483.041 399.648C484.289 398.688 485.489 397.488 486.641 396.048C487.793 394.608 488.753 393.216 489.521 391.872C490.385 390.432 490.817 389.28 490.817 388.416C490.817 387.456 490.625 386.736 490.241 386.256C489.665 386.832 488.753 387.744 487.505 388.992C486.353 390.24 485.105 391.632 483.761 393.168C482.513 394.608 481.409 396 480.449 397.344C479.585 398.592 479.153 399.552 479.153 400.224C479.153 400.8 479.441 401.088 480.017 401.088ZM546.126 351.408C545.454 351.408 544.83 351.264 544.254 350.976C543.678 350.592 543.39 350.064 543.39 349.392C543.39 348.624 543.726 347.472 544.398 345.936C545.07 344.304 545.934 342.672 546.99 341.04C548.046 339.408 549.15 338.016 550.302 336.864C551.55 335.712 552.654 335.136 553.614 335.136C554.382 335.136 554.766 335.616 554.766 336.576C554.766 337.728 554.142 338.64 552.894 339.312C552.126 339.792 551.454 340.704 550.878 342.048C550.398 343.392 549.966 344.784 549.582 346.224C549.294 347.664 549.006 348.816 548.718 349.68C548.43 350.832 547.566 351.408 546.126 351.408ZM543.246 406.56C541.038 406.56 539.406 405.648 538.35 403.824C537.294 401.904 536.622 399.744 536.334 397.344C536.046 394.848 535.902 392.832 535.902 391.296C535.902 390.336 535.998 388.56 536.19 385.968C536.478 383.376 536.814 380.496 537.198 377.328C537.678 374.064 538.206 370.896 538.782 367.824C539.454 364.752 540.222 362.208 541.086 360.192C541.95 358.176 542.862 357.168 543.822 357.168C544.59 357.168 545.262 357.408 545.838 357.888C546.414 358.368 546.702 358.992 546.702 359.76C546.702 360.912 546.366 362.736 545.694 365.232C545.022 367.728 544.206 370.56 543.246 373.728C542.382 376.896 541.566 380.112 540.798 383.376C540.126 386.544 539.79 389.424 539.79 392.016C539.79 392.688 539.838 393.84 539.934 395.472C540.126 397.104 540.462 398.64 540.942 400.08C541.422 401.424 542.19 402.096 543.246 402.096C544.686 402.096 546.27 401.04 547.998 398.928C549.726 396.816 551.454 394.224 553.182 391.152C555.006 387.984 556.686 384.864 558.222 381.792C559.758 378.624 561.054 375.984 562.11 373.872C563.166 371.76 563.886 370.704 564.27 370.704C564.75 370.704 565.038 370.896 565.134 371.28C565.326 371.568 565.422 371.904 565.422 372.288C565.422 373.536 564.894 375.552 563.838 378.336C562.782 381.024 561.39 384 559.662 387.264C557.934 390.432 556.062 393.504 554.046 396.48C552.03 399.36 550.062 401.76 548.142 403.68C546.222 405.6 544.59 406.56 543.246 406.56ZM602.248 406.128C599.368 406.128 597.112 405.168 595.48 403.248C593.848 401.232 592.696 398.88 592.024 396.192C591.352 393.408 591.016 390.912 591.016 388.704C591.016 387.072 591.256 384.528 591.736 381.072C592.216 377.52 592.936 373.632 593.896 369.408C594.952 365.184 596.2 361.104 597.64 357.168C599.08 353.232 600.76 350.016 602.68 347.52C604.6 344.928 606.712 343.632 609.016 343.632C610.648 343.632 611.848 344.256 612.616 345.504C613.384 346.752 613.864 348.336 614.056 350.256C614.344 352.08 614.488 353.904 614.488 355.728C614.488 357.456 614.488 358.896 614.488 360.048C614.488 360.528 614.152 361.056 613.48 361.632C612.904 362.112 612.376 362.352 611.896 362.352C610.936 362.352 610.312 361.92 610.024 361.056C609.736 360.192 609.592 359.232 609.592 358.176C609.592 357.12 609.64 356.16 609.736 355.296C609.832 354.336 609.88 353.616 609.88 353.136C609.88 352.656 609.784 351.888 609.592 350.832C609.4 349.68 609.016 349.104 608.44 349.104C606.904 349.68 605.464 351.216 604.12 353.712C602.776 356.112 601.528 358.992 600.376 362.352C599.32 365.712 598.408 369.168 597.64 372.72C596.968 376.272 596.392 379.536 595.912 382.512C595.528 385.392 595.336 387.552 595.336 388.992C595.336 390.336 595.48 392.064 595.768 394.176C596.152 396.192 596.824 398.016 597.784 399.648C598.84 401.28 600.28 402.096 602.104 402.096C604.12 402.096 606.136 401.184 608.152 399.36C610.168 397.44 612.088 395.088 613.912 392.304C615.832 389.52 617.56 386.736 619.096 383.952C620.632 381.072 621.88 378.72 622.84 376.896C623.896 374.976 624.616 374.016 625 374.016C625.48 374.016 625.768 374.256 625.864 374.736C625.96 375.216 625.96 375.6 625.864 375.888L625.72 376.464C625.144 378.576 624.088 381.264 622.552 384.528C621.016 387.792 619.144 391.104 616.936 394.464C614.728 397.728 612.328 400.512 609.736 402.816C607.24 405.024 604.744 406.128 602.248 406.128Z" fill="white"/>
<path d="M226.136 314V310.4H275.96C280.472 310.4 284.312 309.728 287.48 308.384C290.744 306.944 293.24 304.304 294.968 300.464C296.696 296.624 297.56 291.104 297.56 283.904C297.56 277.376 296.744 272.336 295.112 268.784C293.48 265.136 290.792 262.592 287.048 261.152C283.304 259.712 278.168 258.992 271.64 258.992L267.32 254.672C277.304 254.672 286.232 255.776 294.104 257.984C301.976 260.096 308.168 263.36 312.68 267.776C317.288 272.192 319.592 277.808 319.592 284.624C319.592 290.384 317.912 295.472 314.552 299.888C311.288 304.304 306.776 307.76 301.016 310.256C295.352 312.752 288.92 314 281.72 314H226.136ZM241.976 311.84V205.424H261.272V311.84H241.976ZM256.808 258.992V254.672H275.96C280.376 254.672 283.928 254.096 286.616 252.944C289.4 251.696 291.416 249.488 292.664 246.32C294.008 243.056 294.68 238.352 294.68 232.208C294.68 225.68 294.008 220.784 292.664 217.52C291.32 214.16 289.256 211.904 286.472 210.752C283.688 209.6 280.184 209.024 275.96 209.024H226.136V205.424H281.72C288.056 205.424 293.768 206.576 298.856 208.88C303.944 211.088 307.976 214.16 310.952 218.096C314.024 222.032 315.56 226.544 315.56 231.632C315.56 237.008 313.784 241.76 310.232 245.888C306.68 250.016 301.928 253.232 295.976 255.536C290.024 257.84 283.352 258.992 275.96 258.992H256.808ZM330.122 314V310.4H391.034C395.834 310.4 399.866 309.008 403.13 306.224C406.49 303.44 409.082 299.744 410.906 295.136C412.73 290.528 413.69 285.536 413.786 280.16H418.826V314H330.122ZM347.114 311.84V205.424H366.41V311.84H347.114ZM330.122 209.024V205.424H383.834V209.024H330.122ZM478.773 315.728C471.765 315.728 465.237 314.24 459.189 311.264C453.141 308.288 447.813 304.208 443.205 299.024C438.693 293.744 435.141 287.744 432.549 281.024C430.053 274.304 428.805 267.2 428.805 259.712C428.805 252.224 430.053 245.12 432.549 238.4C435.141 231.68 438.693 225.728 443.205 220.544C447.813 215.264 453.141 211.136 459.189 208.16C465.237 205.184 471.765 203.696 478.773 203.696C485.781 203.696 492.309 205.184 498.357 208.16C504.405 211.136 509.685 215.264 514.197 220.544C518.805 225.728 522.357 231.68 524.853 238.4C527.445 245.12 528.741 252.224 528.741 259.712C528.741 267.2 527.445 274.304 524.853 281.024C522.357 287.744 518.805 293.744 514.197 299.024C509.685 304.208 504.405 308.288 498.357 311.264C492.309 314.24 485.781 315.728 478.773 315.728ZM478.773 311.408C483.669 311.408 487.797 310.64 491.157 309.104C494.613 307.472 497.397 304.736 499.509 300.896C501.717 297.056 503.301 291.776 504.261 285.056C505.221 278.336 505.701 269.84 505.701 259.568C505.701 249.296 505.221 240.8 504.261 234.08C503.301 227.36 501.717 222.128 499.509 218.384C497.397 214.544 494.613 211.856 491.157 210.32C487.797 208.784 483.669 208.016 478.773 208.016C473.877 208.016 469.701 208.784 466.245 210.32C462.885 211.856 460.101 214.544 457.893 218.384C455.781 222.224 454.245 227.504 453.285 234.224C452.325 240.944 451.845 249.44 451.845 259.712C451.845 269.984 452.325 278.48 453.285 285.2C454.245 291.92 455.781 297.2 457.893 301.04C460.101 304.88 462.885 307.568 466.245 309.104C469.701 310.64 473.877 311.408 478.773 311.408ZM571.851 315.728L535.419 209.024H524.475V205.424H625.131V209.024H616.923L604.971 242.144L619.803 286.352H620.379L647.307 209.024H632.475V205.424H662.427V209.024H652.059L615.051 315.728H610.731L593.739 266.048L576.171 315.728H571.851ZM581.211 286.352H581.787L591.435 259.136L574.299 209.024H554.715L581.211 286.352ZM602.667 235.52L611.883 209.024H593.595L602.667 235.52ZM676.571 311.84V205.424H695.867V311.84H676.571ZM660.731 314V310.4H711.707V314H660.731ZM660.731 209.024V205.424H711.707V209.024H660.731ZM800.11 315.728L737.326 215.648H736.75V310.4H752.59V314H715.294V310.4H731.134V209.024H715.294V205.424H754.318L798.382 275.408H798.958V209.024H784.558V205.424H818.974V209.024H804.574V315.728H800.11ZM873.192 315.728C865.704 315.728 858.984 314.192 853.032 311.12C847.08 308.048 841.992 303.92 837.768 298.736C833.64 293.456 830.424 287.552 828.12 281.024C825.912 274.4 824.808 267.632 824.808 260.72C824.808 253.232 826.056 246.08 828.552 239.264C831.144 232.352 834.696 226.256 839.208 220.976C843.72 215.6 849 211.376 855.048 208.304C861.192 205.232 867.864 203.696 875.064 203.696C879.576 203.696 883.752 204.416 887.592 205.856C891.432 207.296 895.128 209.552 898.68 212.624L905.016 205.424H908.616V237.968H905.016C903.96 232.592 902.28 227.648 899.976 223.136C897.672 218.528 894.504 214.88 890.472 212.192C886.536 209.408 881.4 208.016 875.064 208.016C871.032 208.016 867.336 208.784 863.976 210.32C860.712 211.856 857.832 214.592 855.336 218.528C852.936 222.368 851.064 227.792 849.72 234.8C848.472 241.712 847.848 250.592 847.848 261.44C847.848 271.424 848.424 279.68 849.576 286.208C850.728 292.64 852.36 297.68 854.472 301.328C856.584 304.976 859.176 307.52 862.248 308.96C865.416 310.4 868.92 311.12 872.76 311.12C879 311.12 883.848 309.632 887.304 306.656C890.856 303.584 892.632 299.312 892.632 293.84V273.248H914.088V276.704C914.088 284.864 912.168 291.872 908.328 297.728C904.584 303.488 899.592 307.952 893.352 311.12C887.208 314.192 880.488 315.728 873.192 315.728ZM874.92 275.408V271.808H922.44V275.408H874.92Z" fill="#2F2F2F"/>
</g>
<defs>
<filter id="filter0_d_332_241" x="16" y="43" width="916" height="420" filterUnits="userSpaceOnUse" color-interpolation-filters="sRGB">
<feFlood flood-opacity="0" result="BackgroundImageFix"/>
<feColorMatrix in="SourceAlpha" type="matrix" values="0 0 0 0 0 0 0 0 0 0 0 0 0 0 0 0 0 0 127 0" result="hardAlpha"/>
<feOffset dy="4"/>
<feGaussianBlur stdDeviation="2"/>
<feComposite in2="hardAlpha" operator="out"/>
<feColorMatrix type="matrix" values="0 0 0 0 0 0 0 0 0 0 0 0 0 0 0 0 0 0 0.25 0"/>
<feBlend mode="normal" in2="BackgroundImageFix" result="effect1_dropShadow_332_241"/>
<feBlend mode="normal" in="SourceGraphic" in2="effect1_dropShadow_332_241" result="shape"/>
</filter>
<clipPath id="clip0_332_241">
<rect width="289" height="289" fill="white" transform="translate(20 43)"/>
</clipPath>
</defs>
</svg>
