<svg width="2038" height="300" viewBox="0 0 2038 300" fill="none" xmlns="http://www.w3.org/2000/svg">
<g clip-path="url(#clip0_307_2)">
<rect width="2038" height="300" fill="white"/>
<rect width="2038" height="300" fill="#181846"/>
<rect x="380" width="1658" height="300" fill="#181846"/>
<path d="M573.289 236H533.86L534.104 203.041H573.289C581.427 203.041 588.304 201.088 593.919 197.182C599.616 193.275 603.929 187.457 606.858 179.726C609.869 171.913 611.375 162.31 611.375 150.917V143.227C611.375 134.682 610.521 127.195 608.812 120.766C607.184 114.255 604.743 108.843 601.487 104.53C598.232 100.136 594.163 96.8398 589.28 94.6426C584.479 92.4453 578.945 91.3467 572.679 91.3467H533.128V58.2656H572.679C584.723 58.2656 595.75 60.3408 605.76 64.4912C615.851 68.5602 624.559 74.4196 631.883 82.0693C639.288 89.6377 644.985 98.6302 648.973 109.047C653.042 119.382 655.076 130.857 655.076 143.471V150.917C655.076 163.45 653.042 174.924 648.973 185.341C644.985 195.757 639.329 204.75 632.005 212.318C624.681 219.887 616.014 225.746 606.004 229.896C596.076 233.965 585.171 236 573.289 236ZM558.396 58.2656V236H515.55V58.2656H558.396ZM804.729 203.041V236H710.003V203.041H804.729ZM725.262 58.2656V236H682.415V58.2656H725.262ZM792.522 128.822V160.683H710.003V128.822H792.522ZM805.096 58.2656V91.3467H710.003V58.2656H805.096ZM894.568 194.13L931.556 58.2656H979.529L919.593 236H888.587L894.568 194.13ZM860.999 58.2656L897.986 194.13L904.212 236H872.84L813.27 58.2656H860.999ZM1119.91 203.041V236H1025.18V203.041H1119.91ZM1040.44 58.2656V236H997.591V58.2656H1040.44ZM1107.7 128.822V160.683H1025.18V128.822H1107.7ZM1120.27 58.2656V91.3467H1025.18V58.2656H1120.27ZM1259.92 203.041V236H1170.07V203.041H1259.92ZM1185.33 58.2656V236H1142.48V58.2656H1185.33ZM1425.56 143.593V150.795C1425.56 164.385 1423.65 176.592 1419.82 187.416C1416.08 198.158 1410.75 207.354 1403.83 215.004C1396.91 222.572 1388.74 228.391 1379.29 232.46C1369.85 236.448 1359.44 238.441 1348.04 238.441C1336.57 238.441 1326.07 236.448 1316.55 232.46C1307.11 228.391 1298.89 222.572 1291.89 215.004C1284.98 207.354 1279.6 198.158 1275.78 187.416C1272.04 176.592 1270.16 164.385 1270.16 150.795V143.593C1270.16 130.002 1272.04 117.795 1275.78 106.972C1279.6 96.1481 1284.93 86.9521 1291.77 79.3838C1298.69 71.734 1306.87 65.9154 1316.31 61.9277C1325.83 57.8587 1336.33 55.8242 1347.8 55.8242C1359.19 55.8242 1369.61 57.8587 1379.05 61.9277C1388.57 65.9154 1396.79 71.734 1403.71 79.3838C1410.63 86.9521 1416 96.1481 1419.82 106.972C1423.65 117.795 1425.56 130.002 1425.56 143.593ZM1382.1 150.795V143.349C1382.1 134.56 1381.33 126.828 1379.78 120.155C1378.32 113.401 1376.12 107.745 1373.19 103.188C1370.26 98.6302 1366.64 95.2122 1362.33 92.9336C1358.1 90.5736 1353.25 89.3936 1347.8 89.3936C1342.1 89.3936 1337.14 90.5736 1332.91 92.9336C1328.68 95.2122 1325.14 98.6302 1322.29 103.188C1319.44 107.745 1317.28 113.401 1315.82 120.155C1314.43 126.828 1313.74 134.56 1313.74 143.349V150.795C1313.74 159.503 1314.43 167.234 1315.82 173.988C1317.28 180.661 1319.44 186.317 1322.29 190.956C1325.22 195.595 1328.8 199.094 1333.03 201.454C1337.34 203.814 1342.35 204.994 1348.04 204.994C1353.5 204.994 1358.34 203.814 1362.57 201.454C1366.8 199.094 1370.34 195.595 1373.19 190.956C1376.12 186.317 1378.32 180.661 1379.78 173.988C1381.33 167.234 1382.1 159.503 1382.1 150.795ZM1523.7 175.697H1479.51V142.616H1523.7C1529.72 142.616 1534.6 141.599 1538.35 139.564C1542.09 137.53 1544.82 134.722 1546.53 131.142C1548.32 127.479 1549.21 123.37 1549.21 118.812C1549.21 113.93 1548.32 109.413 1546.53 105.263C1544.82 101.112 1542.09 97.7757 1538.35 95.2529C1534.6 92.6488 1529.72 91.3467 1523.7 91.3467H1495.62V236H1452.78V58.2656H1523.7C1537.94 58.2656 1550.19 60.8698 1560.44 66.0781C1570.78 71.2865 1578.71 78.4479 1584.25 87.5625C1589.78 96.5957 1592.55 106.931 1592.55 118.568C1592.55 130.043 1589.78 140.053 1584.25 148.598C1578.71 157.143 1570.78 163.816 1560.44 168.617C1550.19 173.337 1537.94 175.697 1523.7 175.697ZM1742.93 203.041V236H1648.21V203.041H1742.93ZM1663.46 58.2656V236H1620.62V58.2656H1663.46ZM1730.73 128.822V160.683H1648.21V128.822H1730.73ZM1743.3 58.2656V91.3467H1648.21V58.2656H1743.3ZM1765.51 58.2656H1835.46C1849.13 58.2656 1861.01 60.3001 1871.1 64.3691C1881.19 68.4382 1888.96 74.4603 1894.42 82.4355C1899.95 90.4108 1902.72 100.258 1902.72 111.977C1902.72 122.149 1901.13 130.653 1897.96 137.489C1894.78 144.325 1890.35 149.981 1884.65 154.457C1879.04 158.852 1872.49 162.473 1865 165.321L1850.96 173.256H1792.24L1792 140.175H1835.46C1840.91 140.175 1845.43 139.198 1849.01 137.245C1852.59 135.292 1855.27 132.525 1857.06 128.944C1858.94 125.282 1859.87 120.928 1859.87 115.883C1859.87 110.756 1858.94 106.361 1857.06 102.699C1855.19 99.0371 1852.42 96.2295 1848.76 94.2764C1845.18 92.3232 1840.75 91.3467 1835.46 91.3467H1808.36V236H1765.51V58.2656ZM1862.8 236L1823.49 157.387L1868.9 157.143L1908.7 234.169V236H1862.8Z" fill="white"/>
<path d="M541.27 218.506C534.977 220.261 529.167 219.528 523.839 216.308C518.64 213.051 514.769 206.864 512.226 197.745C511.76 196.075 511.359 194.388 511.021 192.682C510.684 190.977 510.375 189.125 510.095 187.127C508.929 177.486 510.107 167.814 513.63 158.111C517.246 148.244 522.689 138.974 529.96 130.302C537.195 121.501 545.823 113.973 555.844 107.718C555.758 106.912 555.625 106.187 555.446 105.545C555.231 104.775 555.034 104.068 554.855 103.426L553.834 99.7658C552.545 95.1422 550.909 90.2692 548.927 85.1468C547.037 79.8601 544.677 75.1199 541.846 70.9261C539.015 66.7324 535.583 63.6063 531.548 61.5478C527.642 59.4535 522.928 59.1765 517.405 60.7167C516.891 60.8599 516.313 61.0211 515.671 61.2002C515.157 61.3435 514.597 61.5689 513.991 61.8764C507.656 64.4738 502.354 68.7901 498.085 74.8254C493.78 80.7323 490.779 87.5906 489.081 95.4005C487.384 103.21 487.095 111.111 488.217 119.104C488.339 120.039 488.444 120.909 488.53 121.716C488.745 122.486 488.942 123.193 489.121 123.835C490.626 129.229 492.726 131.55 495.423 130.798C496.194 130.583 497.004 130.011 497.852 129.082C497.945 128.918 498.119 128.8 498.376 128.729C498.761 128.621 499.044 128.889 499.223 129.531C499.509 130.558 499.186 132.378 498.254 134.992C497.414 137.441 495.571 139.27 492.725 140.479L491.376 140.855C488.422 141.679 486.009 140.967 484.137 138.721C482.393 136.439 481.092 133.757 480.232 130.674C480.017 129.904 479.82 129.197 479.641 128.555C479.426 127.785 479.293 127.06 479.243 126.382C478.115 119.361 478.271 111.981 479.712 104.242C481.281 96.4684 483.8 89.1216 487.269 82.2021C490.83 75.1184 495.228 69.0472 500.461 63.9887C505.659 58.8018 511.404 55.3307 517.697 53.5756L518.853 53.2533C526.431 51.14 533.033 51.2366 538.659 53.5433C544.378 55.6856 549.31 59.2242 553.455 64.1588C557.599 69.0934 561.035 74.7104 563.76 81.0097C566.615 87.2732 568.901 93.4873 570.621 99.6521L570.674 99.8447C573.043 98.9073 575.429 98.0341 577.834 97.2251C580.331 96.2519 582.799 95.425 585.24 94.7444C586.652 94.3504 588.147 94.0027 589.724 93.7014C591.266 93.2715 592.825 92.9059 594.402 92.6045C596.492 92.1599 597.663 92.3871 597.914 93.2861C598.2 94.3135 597.316 95.1138 595.261 95.6869L594.683 95.8481C593.656 96.1346 592.564 96.4391 591.408 96.7615C590.217 96.9554 589.107 97.1956 588.08 97.4822C585.254 98.2702 582.464 99.1866 579.71 100.232C576.957 101.276 574.303 102.432 571.749 103.698C572 104.597 572.168 105.449 572.255 106.256C572.47 107.026 572.685 107.797 572.9 108.568C573.896 113.134 574.648 118.808 575.155 125.587C575.625 132.239 575.69 139.419 575.348 147.127C575.006 154.836 574.115 162.559 572.674 170.297C571.362 178 569.357 185.203 566.658 191.908C564.089 198.576 560.683 204.233 556.441 208.876C552.364 213.612 547.307 216.822 541.27 218.506ZM538.942 213.134C544.464 211.594 548.818 208.095 552.003 202.639C555.223 197.312 557.49 190.797 558.802 183.094C560.243 175.356 560.945 167.201 560.907 158.629C560.998 150.022 560.629 141.75 559.8 133.815C558.936 125.751 557.954 118.757 556.856 112.834C548.74 118.974 541.846 126.018 536.173 133.968C530.5 141.917 526.244 150.233 523.405 158.914C520.659 167.432 519.444 175.73 519.759 183.809C520.036 189.269 520.747 194.053 521.893 198.163C523.541 204.071 525.886 208.262 528.929 210.735C532.137 213.301 535.474 214.101 538.942 213.134ZM685.37 152.156C681.774 153.159 678.733 153.176 676.249 152.208C673.857 151.076 672.446 149.739 672.016 148.198C671.729 147.17 671.946 146.21 672.666 145.317C673.35 144.296 674.655 143.517 676.582 142.979C687.242 140.007 697.025 135.132 705.932 128.357C714.84 121.582 722.39 113.663 728.583 104.599C734.74 95.4073 738.959 85.7178 741.239 75.5307C743.52 65.3436 743.299 55.3696 740.577 45.6087C738.571 38.4165 735.346 32.81 730.903 28.7893C726.459 24.7685 721.285 21.8512 715.381 20.0373C706.771 17.4554 697.427 16.4623 687.35 17.0579C677.273 17.6536 667.29 19.3304 657.401 22.0884C648.539 24.5599 640.067 27.6841 631.984 31.4608C623.902 35.2376 616.633 39.2027 610.178 43.3561C605.506 46.4584 601.217 49.9386 597.31 53.7968C593.495 57.4906 590.605 61.2727 588.639 65.1431C586.766 68.8492 586.295 72.3719 587.226 75.7112C588.122 78.922 590.14 81.1966 593.282 82.5352C596.516 83.7095 600.188 83.7235 604.298 82.5773C608.537 81.3953 612.984 78.9783 617.641 75.3264C622.39 71.5103 626.81 66.2635 630.9 59.586C631.085 59.2575 631.242 59.0753 631.37 59.0395C631.756 58.932 632.038 59.1994 632.217 59.8416C632.432 60.6122 632.397 61.7292 632.113 63.1926C631.958 64.6202 631.445 66.0089 630.576 67.3587C627.227 72.7222 623.078 77.2015 618.128 80.7966C613.143 84.2633 608.082 86.713 602.944 88.1457C601.66 88.5039 600.294 88.8158 598.845 89.0813C597.525 89.3111 596.251 89.4587 595.024 89.5242C590.37 89.7146 586.33 88.6268 582.901 86.2608C579.601 83.859 577.396 80.6674 576.286 76.686C574.853 71.5487 575.123 66.5595 577.095 61.7185C579.195 56.8416 582.384 52.1456 586.662 47.6305C591.068 43.0796 596.131 38.8991 601.851 35.0891C608.841 30.3713 616.551 26.0061 624.983 21.9935C633.544 17.945 642.319 14.6671 651.309 12.1598C661.969 9.18686 672.713 7.50566 683.539 7.11621C694.33 6.59832 704.523 7.90817 714.119 11.0458C722.636 13.7919 730.017 18.1701 736.261 24.1803C742.47 30.062 746.845 37.5622 749.388 46.6809C752.54 57.9829 753.055 69.2591 750.933 80.5095C748.775 91.6315 744.56 102.081 738.29 111.858C732.019 121.636 724.337 130.076 715.245 137.18C706.117 144.155 696.158 149.147 685.37 152.156ZM674.33 160.218C671.248 161.078 668.467 160.538 665.988 158.599C663.546 156.789 661.417 154.614 659.601 152.076C657.406 148.673 655.425 144.796 653.658 140.444C651.855 135.964 650.237 131.155 648.804 126.018C646.655 118.312 644.884 110.224 643.49 101.754C642.097 93.2833 641.004 85.1445 640.211 77.3372C639.546 69.4942 639.057 62.7786 638.745 57.1905C638.584 53.6364 638.359 50.1001 638.07 46.5818C637.745 42.935 637.813 39.4556 638.273 36.1435C638.294 35.7223 638.479 35.3938 638.829 35.158C639.307 34.8862 639.738 34.6967 640.124 34.5892C641.023 34.3385 642.489 34.1371 644.523 33.9851C646.685 33.7973 648.773 33.838 650.786 34.1071C652.928 34.3405 654.352 34.9813 655.06 36.0298L655.328 36.993C654.852 45.708 654.591 55.1936 654.544 65.4497C654.462 75.5775 654.936 85.9651 655.968 96.6127C656.964 107.132 658.877 117.465 661.706 127.611L661.921 128.381C662.924 131.977 663.999 135.83 665.145 139.94C666.419 144.014 667.833 147.842 669.385 151.423C671.066 154.969 672.907 157.846 674.908 160.057L674.33 160.218ZM800.206 122.413C794.426 124.025 789.17 124.038 784.436 122.451C779.795 120.7 776.49 116.293 774.52 109.229C774.448 108.972 774.287 108.394 774.036 107.495C773.878 106.432 773.72 105.368 773.562 104.305C772.397 103.107 771.475 101.288 770.794 98.8481C770.364 97.3069 770.245 95.8868 770.436 94.5876C770.628 93.2884 771.237 92.4956 772.265 92.209L772.457 92.1553C772.843 92.0479 773.482 92.3541 774.375 93.074C774.719 87.8564 774.899 82.5462 774.915 77.1433C774.895 71.612 774.908 66.6945 774.953 62.3907C774.948 57.409 775.174 52.0166 775.632 46.2136C776.183 40.2464 778.247 35.2411 781.826 31.1977C784.556 28.0831 787.848 25.9885 791.701 24.914C791.958 24.8423 792.297 24.817 792.718 24.838C793.103 24.7305 793.424 24.641 793.681 24.5693C794.745 24.4112 795.384 24.7175 795.599 25.4881C795.849 26.3871 795.525 26.962 794.626 27.2127C793.249 27.7351 792.544 29.1776 792.511 31.54C792.442 33.774 792.783 36.2395 793.536 38.9366C793.715 39.5788 793.912 40.2852 794.127 41.0557C794.341 41.8263 794.603 42.5148 794.91 43.1212C796.606 47.2161 799.069 51.5815 802.3 56.2174C805.495 60.7248 808.579 65.3322 811.553 70.0397C814.62 74.5829 816.762 79.0378 817.98 83.4045L818.249 84.3678C818.714 86.0374 819.087 87.8712 819.368 89.8694C819.776 91.8317 819.911 93.8014 819.77 95.7785C821.532 95.1486 823.212 94.4724 824.81 93.7499C826.501 92.8632 827.981 91.9659 829.25 91.0582C830.833 89.7861 831.995 88.4931 832.736 87.1791C833.606 85.8293 834.247 84.4048 834.659 82.9055C834.808 82.4486 835.076 82.1664 835.461 82.0589C836.488 81.7724 837.181 82.2713 837.539 83.5556C837.647 83.9409 837.644 84.4262 837.53 85.0116C836.906 88.2311 834.982 91.2593 831.759 94.096C828.535 96.9328 824.455 99.1781 819.518 100.832C818.866 105.443 817.026 109.763 813.997 113.792C811.096 117.784 806.499 120.658 800.206 122.413ZM803.382 98.0651C803.245 96.5807 803.025 95.05 802.724 93.473C802.422 91.896 802.057 90.3369 801.627 88.7957C800.947 86.3555 800.138 83.9511 799.2 81.5825C798.227 79.0855 797.207 76.6706 796.141 74.3379C793.559 68.5523 790.927 63.3342 788.246 58.6835C785.693 53.997 783.861 49.6631 782.751 45.6817C782.178 43.6268 781.851 41.7108 781.771 39.9337C781.129 40.1128 780.691 41.273 780.458 43.4144C780.224 45.5558 780.063 47.9541 779.973 50.6092C779.883 53.2643 779.849 55.6268 779.873 57.6965C779.872 63.6489 779.796 69.8298 779.646 76.2391C779.46 82.52 779.127 88.7725 778.648 94.9967C780.312 95.5017 782.168 95.953 784.217 96.3505C786.394 96.7123 788.489 97.0277 790.502 97.2969C792.386 97.6018 794.399 97.8709 796.541 98.1043C798.775 98.1733 801.055 98.1603 803.382 98.0651ZM793.231 117.507L794.002 117.292C796.242 116.39 798.339 114.975 800.292 113.046C802.21 110.988 803.289 108.403 803.528 105.291C803.492 105.163 803.475 105.099 803.475 105.099C803.567 104.934 803.596 104.788 803.56 104.66C798.7 105.6 794.044 106.275 789.591 106.687C785.23 106.934 781.587 106.774 778.66 106.206C778.767 106.591 778.81 106.994 778.789 107.415C778.897 107.8 778.986 108.122 779.058 108.378C780.133 112.231 781.938 114.981 784.473 116.627C787.101 118.109 790.02 118.402 793.231 117.507Z" fill="#F7DF1E"/>
<rect width="380" height="300" fill="#F7DF1E"/>
<path d="M190 46C162.417 46 135.965 56.9571 116.461 76.4609C96.9571 95.9647 86 122.417 86 150C86 177.583 96.9571 204.035 116.461 223.539C135.965 243.043 162.417 254 190 254C217.583 254 244.035 243.043 263.539 223.539C283.043 204.035 294 177.583 294 150C294 122.417 283.043 95.9647 263.539 76.4609C244.035 56.9571 217.583 46 190 46ZM205.607 98L218.421 103.992L214.324 112.49L266.747 144.854V156.822L225.767 182.246L218.319 170.905L252.342 150.846L208.332 125.1L171.245 202L158.329 196.109L162.527 187.392L113.253 156.822V144.956L154.335 119.43L161.681 130.872L127.539 150.846L168.52 174.9L205.607 98Z" fill="#181846"/>
</g>
<defs>
<clipPath id="clip0_307_2">
<rect width="2038" height="300" fill="white"/>
</clipPath>
</defs>
</svg>
